<svg width="1024" height="1024" viewBox="0 0 1024 1024" fill="none" xmlns="http://www.w3.org/2000/svg">
<mask id="mask0_3327_26" style="mask-type:alpha" maskUnits="userSpaceOnUse" x="0" y="0" width="1024" height="1024">
<rect width="1024" height="1024" fill="url(#paint0_radial_3327_26)"/>
</mask>
<g mask="url(#mask0_3327_26)">
<rect width="1024" height="1024" rx="80" fill="url(#paint1_radial_3327_26)"/>
<path d="M508 546C481.034 546 457.438 537.288 437.213 519.864C417.738 501.682 408 477.061 408 446C408 414.939 417.738 390.697 437.213 373.273C457.438 355.091 481.034 346 508 346C534.966 346 558.187 355.091 577.663 373.273C597.888 390.697 608 414.939 608 446C608 477.061 597.888 501.682 577.663 519.864C558.187 537.288 534.966 546 508 546Z" fill="#5D5FEF"/>
<path d="M0 446H195.048L292.571 225L438.857 667L585.143 335.5L731.429 501.25H1024" stroke="white" stroke-width="12" stroke-linejoin="round"/>
<mask id="path-5-outside-1_3327_26" maskUnits="userSpaceOnUse" x="-11" y="322" width="1040" height="491" fill="black">
<rect fill="white" x="-11" y="322" width="1040" height="491"/>
<path d="M29.5773 695V481.64C40.2173 478.56 53.9373 475.76 70.7373 473.24C87.5373 470.44 105.177 469.04 123.657 469.04C148.857 469.04 168.457 473.38 182.457 482.06C196.457 490.46 206.257 502.22 211.857 517.34C217.457 532.46 220.257 550.1 220.257 570.26V695H157.677V577.82C157.677 564.38 156.557 553.6 154.317 545.48C152.077 537.36 148.157 531.48 142.557 527.84C137.237 524.2 129.677 522.38 119.877 522.38C115.397 522.38 110.637 522.66 105.597 523.22C100.557 523.5 96.0773 523.92 92.1573 524.48V695H29.5773Z"/>
<path d="M333.602 700.46C323.522 700.46 312.882 699.9 301.682 698.78C290.762 697.66 280.122 696.12 269.762 694.16C259.682 692.2 250.862 690.1 243.302 687.86V379.16L305.882 369.08V479.12C312.882 476.04 320.162 473.66 327.722 471.98C335.282 470.3 343.402 469.46 352.082 469.46C373.082 469.46 390.722 474.22 405.002 483.74C419.282 493.26 430.062 506.7 437.342 524.06C444.902 541.14 448.682 561.3 448.682 584.54C448.682 608.06 444.062 628.5 434.822 645.86C425.862 663.22 412.842 676.66 395.762 686.18C378.682 695.7 357.962 700.46 333.602 700.46ZM333.182 647.12C344.662 647.12 354.182 644.46 361.742 639.14C369.302 633.82 375.042 626.4 378.962 616.88C382.882 607.08 384.842 595.74 384.842 582.86C384.842 572.78 383.862 563.96 381.902 556.4C380.222 548.84 377.422 542.54 373.502 537.5C369.862 532.46 365.242 528.68 359.642 526.16C354.322 523.64 347.882 522.38 340.322 522.38C333.882 522.38 327.442 523.22 321.002 524.9C314.842 526.58 309.802 528.68 305.882 531.2V645.02C308.962 645.58 312.882 646.14 317.642 646.7C322.402 646.98 327.582 647.12 333.182 647.12ZM463.178 772.7V481.64C470.738 479.4 479.558 477.3 489.638 475.34C499.998 473.38 510.638 471.84 521.558 470.72C532.758 469.6 543.398 469.04 553.478 469.04C577.838 469.04 598.558 473.8 615.638 483.32C632.718 492.56 645.738 505.86 654.698 523.22C663.938 540.58 668.558 561.02 668.558 584.54C668.558 607.22 664.778 627.24 657.218 644.6C649.938 661.68 639.158 675.12 624.878 684.92C610.598 694.44 592.958 699.2 571.958 699.2C563.278 699.2 555.158 698.36 547.598 696.68C540.038 695 532.758 692.62 525.758 689.54V772.7H463.178ZM560.198 646.28C567.758 646.28 574.198 645.02 579.518 642.5C585.118 639.98 589.738 636.2 593.378 631.16C597.298 626.12 600.098 619.96 601.778 612.68C603.738 605.12 604.718 596.3 604.718 586.22C604.718 573.34 602.758 562.14 598.838 552.62C594.918 543.1 589.178 535.68 581.618 530.36C574.058 525.04 564.538 522.38 553.058 522.38C547.458 522.38 542.278 522.66 537.518 523.22C532.758 523.5 528.838 523.92 525.758 524.48V637.46C529.678 639.98 534.718 642.08 540.878 643.76C547.318 645.44 553.758 646.28 560.198 646.28ZM683.055 695V481.64C693.975 478.56 707.695 475.76 724.215 473.24C741.015 470.44 757.535 469.04 773.775 469.04C789.735 469.04 802.615 471.14 812.415 475.34C822.495 479.26 830.755 484.02 837.195 489.62C843.355 485.14 849.935 481.5 856.935 478.7C864.215 475.62 871.635 473.24 879.195 471.56C886.755 469.88 893.755 469.04 900.195 469.04C923.715 469.04 941.775 473.38 954.375 482.06C967.255 490.46 976.075 502.22 980.835 517.34C985.875 532.46 988.395 550.1 988.395 570.26V695H925.815V577.82C925.815 564.38 924.695 553.6 922.455 545.48C920.215 537.36 916.575 531.48 911.535 527.84C906.495 524.2 899.775 522.38 891.375 522.38C889.135 522.38 886.195 522.8 882.555 523.64C879.195 524.2 875.695 525.18 872.055 526.58C868.415 527.98 865.195 529.52 862.395 531.2C864.355 537.64 865.615 544.5 866.175 551.78C866.735 558.78 867.015 566.34 867.015 574.46V695H804.435V577.82C804.435 564.38 803.315 553.6 801.075 545.48C798.835 537.36 795.195 531.48 790.155 527.84C785.115 524.2 778.395 522.38 769.995 522.38C767.475 522.38 764.815 522.52 762.015 522.8C759.215 522.8 756.415 522.94 753.615 523.22C751.095 523.5 748.435 523.92 745.635 524.48V695H683.055Z"/>
</mask>
<path d="M29.5773 695V481.64C40.2173 478.56 53.9373 475.76 70.7373 473.24C87.5373 470.44 105.177 469.04 123.657 469.04C148.857 469.04 168.457 473.38 182.457 482.06C196.457 490.46 206.257 502.22 211.857 517.34C217.457 532.46 220.257 550.1 220.257 570.26V695H157.677V577.82C157.677 564.38 156.557 553.6 154.317 545.48C152.077 537.36 148.157 531.48 142.557 527.84C137.237 524.2 129.677 522.38 119.877 522.38C115.397 522.38 110.637 522.66 105.597 523.22C100.557 523.5 96.0773 523.92 92.1573 524.48V695H29.5773Z" fill="#ADAEFF"/>
<path d="M333.602 700.46C323.522 700.46 312.882 699.9 301.682 698.78C290.762 697.66 280.122 696.12 269.762 694.16C259.682 692.2 250.862 690.1 243.302 687.86V379.16L305.882 369.08V479.12C312.882 476.04 320.162 473.66 327.722 471.98C335.282 470.3 343.402 469.46 352.082 469.46C373.082 469.46 390.722 474.22 405.002 483.74C419.282 493.26 430.062 506.7 437.342 524.06C444.902 541.14 448.682 561.3 448.682 584.54C448.682 608.06 444.062 628.5 434.822 645.86C425.862 663.22 412.842 676.66 395.762 686.18C378.682 695.7 357.962 700.46 333.602 700.46ZM333.182 647.12C344.662 647.12 354.182 644.46 361.742 639.14C369.302 633.82 375.042 626.4 378.962 616.88C382.882 607.08 384.842 595.74 384.842 582.86C384.842 572.78 383.862 563.96 381.902 556.4C380.222 548.84 377.422 542.54 373.502 537.5C369.862 532.46 365.242 528.68 359.642 526.16C354.322 523.64 347.882 522.38 340.322 522.38C333.882 522.38 327.442 523.22 321.002 524.9C314.842 526.58 309.802 528.68 305.882 531.2V645.02C308.962 645.58 312.882 646.14 317.642 646.7C322.402 646.98 327.582 647.12 333.182 647.12ZM463.178 772.7V481.64C470.738 479.4 479.558 477.3 489.638 475.34C499.998 473.38 510.638 471.84 521.558 470.72C532.758 469.6 543.398 469.04 553.478 469.04C577.838 469.04 598.558 473.8 615.638 483.32C632.718 492.56 645.738 505.86 654.698 523.22C663.938 540.58 668.558 561.02 668.558 584.54C668.558 607.22 664.778 627.24 657.218 644.6C649.938 661.68 639.158 675.12 624.878 684.92C610.598 694.44 592.958 699.2 571.958 699.2C563.278 699.2 555.158 698.36 547.598 696.68C540.038 695 532.758 692.62 525.758 689.54V772.7H463.178ZM560.198 646.28C567.758 646.28 574.198 645.02 579.518 642.5C585.118 639.98 589.738 636.2 593.378 631.16C597.298 626.12 600.098 619.96 601.778 612.68C603.738 605.12 604.718 596.3 604.718 586.22C604.718 573.34 602.758 562.14 598.838 552.62C594.918 543.1 589.178 535.68 581.618 530.36C574.058 525.04 564.538 522.38 553.058 522.38C547.458 522.38 542.278 522.66 537.518 523.22C532.758 523.5 528.838 523.92 525.758 524.48V637.46C529.678 639.98 534.718 642.08 540.878 643.76C547.318 645.44 553.758 646.28 560.198 646.28ZM683.055 695V481.64C693.975 478.56 707.695 475.76 724.215 473.24C741.015 470.44 757.535 469.04 773.775 469.04C789.735 469.04 802.615 471.14 812.415 475.34C822.495 479.26 830.755 484.02 837.195 489.62C843.355 485.14 849.935 481.5 856.935 478.7C864.215 475.62 871.635 473.24 879.195 471.56C886.755 469.88 893.755 469.04 900.195 469.04C923.715 469.04 941.775 473.38 954.375 482.06C967.255 490.46 976.075 502.22 980.835 517.34C985.875 532.46 988.395 550.1 988.395 570.26V695H925.815V577.82C925.815 564.38 924.695 553.6 922.455 545.48C920.215 537.36 916.575 531.48 911.535 527.84C906.495 524.2 899.775 522.38 891.375 522.38C889.135 522.38 886.195 522.8 882.555 523.64C879.195 524.2 875.695 525.18 872.055 526.58C868.415 527.98 865.195 529.52 862.395 531.2C864.355 537.64 865.615 544.5 866.175 551.78C866.735 558.78 867.015 566.34 867.015 574.46V695H804.435V577.82C804.435 564.38 803.315 553.6 801.075 545.48C798.835 537.36 795.195 531.48 790.155 527.84C785.115 524.2 778.395 522.38 769.995 522.38C767.475 522.38 764.815 522.52 762.015 522.8C759.215 522.8 756.415 522.94 753.615 523.22C751.095 523.5 748.435 523.92 745.635 524.48V695H683.055Z" fill="white"/>
<path d="M29.5773 695H-10.4227V735H29.5773V695ZM29.5773 481.64L18.455 443.217L-10.4227 451.577V481.64H29.5773ZM70.7373 473.24L76.6709 512.797L76.9925 512.749L77.3133 512.696L70.7373 473.24ZM182.457 482.06L161.38 516.056L161.628 516.21L161.878 516.36L182.457 482.06ZM211.857 517.34L174.347 531.233L174.347 531.233L211.857 517.34ZM220.257 695V735H260.257V695H220.257ZM157.677 695H117.677V735H157.677V695ZM154.317 545.48L115.758 556.117L115.758 556.117L154.317 545.48ZM142.557 527.84L119.97 560.852L120.361 561.12L120.758 561.378L142.557 527.84ZM105.597 523.22L107.816 563.158L108.918 563.097L110.015 562.975L105.597 523.22ZM92.1573 524.48L86.5005 484.882L52.1573 489.788V524.48H92.1573ZM92.1573 695V735H132.157V695H92.1573ZM29.5773 695H69.5773V481.64H29.5773H-10.4227V695H29.5773ZM29.5773 481.64L40.6997 520.063C48.9934 517.662 60.805 515.177 76.6709 512.797L70.7373 473.24L64.8038 433.683C47.0697 436.343 31.4413 439.458 18.455 443.217L29.5773 481.64ZM70.7373 473.24L77.3133 512.696C91.7655 510.287 107.196 509.04 123.657 509.04V469.04V429.04C103.158 429.04 83.3092 430.593 64.1613 433.784L70.7373 473.24ZM123.657 469.04V509.04C145.057 509.04 156.223 512.859 161.38 516.056L182.457 482.06L203.535 448.064C180.692 433.901 152.657 429.04 123.657 429.04V469.04ZM182.457 482.06L161.878 516.36C168.185 520.144 171.949 524.758 174.347 531.233L211.857 517.34L249.367 503.447C240.565 479.682 224.73 460.776 203.037 447.76L182.457 482.06ZM211.857 517.34L174.347 531.233C177.946 540.949 180.257 553.702 180.257 570.26H220.257H260.257C260.257 546.498 256.968 523.971 249.367 503.447L211.857 517.34ZM220.257 570.26H180.257V695H220.257H260.257V570.26H220.257ZM220.257 695V655H157.677V695V735H220.257V695ZM157.677 695H197.677V577.82H157.677H117.677V695H157.677ZM157.677 577.82H197.677C197.677 562.649 196.466 547.854 192.877 534.843L154.317 545.48L115.758 556.117C116.648 559.346 117.677 566.111 117.677 577.82H157.677ZM154.317 545.48L192.877 534.843C188.739 519.844 180.128 504.553 164.357 494.302L142.557 527.84L120.758 561.378C118.737 560.064 117.294 558.485 116.415 557.168C115.609 555.958 115.559 555.399 115.758 556.117L154.317 545.48ZM142.557 527.84L165.145 494.828C150.538 484.834 133.813 482.38 119.877 482.38V522.38V562.38C121.101 562.38 122.008 562.437 122.637 562.503C123.267 562.569 123.546 562.637 123.535 562.634C123.522 562.631 123.158 562.543 122.536 562.279C121.905 562.011 121.009 561.563 119.97 560.852L142.557 527.84ZM119.877 522.38V482.38C113.744 482.38 107.499 482.763 101.18 483.465L105.597 523.22L110.015 562.975C113.775 562.557 117.051 562.38 119.877 562.38V522.38ZM105.597 523.22L103.379 483.282C97.4833 483.609 91.8203 484.122 86.5005 484.882L92.1573 524.48L97.8142 564.078C100.334 563.718 103.631 563.391 107.816 563.158L105.597 523.22ZM92.1573 524.48H52.1573V695H92.1573H132.157V524.48H92.1573ZM92.1573 695V655H29.5773V695V735H92.1573V695ZM301.682 698.78L297.6 738.571L297.651 738.576L297.701 738.581L301.682 698.78ZM269.762 694.16L262.127 733.425L262.226 733.444L262.326 733.463L269.762 694.16ZM243.302 687.86H203.302V717.727L231.938 726.212L243.302 687.86ZM243.302 379.16L236.941 339.669L203.302 345.087V379.16H243.302ZM305.882 369.08H345.882V322.121L299.521 329.589L305.882 369.08ZM305.882 479.12H265.882V540.421L321.991 515.733L305.882 479.12ZM327.722 471.98L336.399 511.027H336.399L327.722 471.98ZM405.002 483.74L427.19 450.458V450.458L405.002 483.74ZM437.342 524.06L400.454 539.529L400.606 539.891L400.764 540.25L437.342 524.06ZM434.822 645.86L399.512 627.066L399.393 627.289L399.277 627.514L434.822 645.86ZM395.762 686.18L415.236 721.119V721.119L395.762 686.18ZM361.742 639.14L384.761 671.852L384.761 671.852L361.742 639.14ZM378.962 616.88L415.949 632.11L416.026 631.923L416.101 631.736L378.962 616.88ZM381.902 556.4L342.854 565.077L343.006 565.761L343.182 566.438L381.902 556.4ZM373.502 537.5L341.074 560.92L341.491 561.496L341.927 562.058L373.502 537.5ZM359.642 526.16L342.518 562.31L342.871 562.477L343.227 562.637L359.642 526.16ZM321.002 524.9L310.905 486.195L310.69 486.251L310.477 486.309L321.002 524.9ZM305.882 531.2L284.251 497.553L265.882 509.362V531.2H305.882ZM305.882 645.02H265.882V678.403L298.726 684.375L305.882 645.02ZM317.642 646.7L312.968 686.426L314.127 686.562L315.293 686.631L317.642 646.7ZM333.602 700.46V660.46C324.993 660.46 315.689 659.981 305.662 658.979L301.682 698.78L297.701 738.581C310.074 739.819 322.05 740.46 333.602 740.46V700.46ZM301.682 698.78L305.763 658.989C295.921 657.979 286.402 656.599 277.197 654.857L269.762 694.16L262.326 733.463C273.841 735.641 285.602 737.341 297.6 738.571L301.682 698.78ZM269.762 694.16L277.396 654.895C268.221 653.111 260.696 651.295 254.665 649.508L243.302 687.86L231.938 726.212C241.027 728.905 251.142 731.289 262.127 733.425L269.762 694.16ZM243.302 687.86H283.302V379.16H243.302H203.302V687.86H243.302ZM243.302 379.16L249.663 418.651L312.243 408.571L305.882 369.08L299.521 329.589L236.941 339.669L243.302 379.16ZM305.882 369.08H265.882V479.12H305.882H345.882V369.08H305.882ZM305.882 479.12L321.991 515.733C326.569 513.718 331.357 512.148 336.399 511.027L327.722 471.98L319.044 432.932C308.966 435.172 299.194 438.362 289.772 442.507L305.882 479.12ZM327.722 471.98L336.399 511.027C340.792 510.051 345.975 509.46 352.082 509.46V469.46V429.46C340.828 429.46 329.772 430.549 319.044 432.932L327.722 471.98ZM352.082 469.46V509.46C366.966 509.46 376.444 512.776 382.814 517.022L405.002 483.74L427.19 450.458C404.999 435.664 379.197 429.46 352.082 429.46V469.46ZM405.002 483.74L382.814 517.022C389.918 521.758 395.909 528.691 400.454 539.529L437.342 524.06L474.229 508.591C464.214 484.709 448.645 464.762 427.19 450.458L405.002 483.74ZM437.342 524.06L400.764 540.25C405.588 551.147 408.682 565.554 408.682 584.54H448.682H488.682C488.682 557.046 484.216 531.133 473.919 507.87L437.342 524.06ZM448.682 584.54H408.682C408.682 602.784 405.123 616.524 399.512 627.066L434.822 645.86L470.131 664.654C483 640.476 488.682 613.336 488.682 584.54H448.682ZM434.822 645.86L399.277 627.514C393.929 637.876 386.502 645.547 376.287 651.241L395.762 686.18L415.236 721.119C439.181 707.773 457.794 688.564 470.366 664.206L434.822 645.86ZM395.762 686.18L376.287 651.241C366.455 656.721 352.797 660.46 333.602 660.46V700.46V740.46C363.126 740.46 390.908 734.679 415.236 721.119L395.762 686.18ZM333.182 647.12V687.12C350.89 687.12 368.985 682.954 384.761 671.852L361.742 639.14L338.722 606.428C338.917 606.29 338.846 606.411 338.167 606.601C337.422 606.809 335.855 607.12 333.182 607.12V647.12ZM361.742 639.14L384.761 671.852C399.238 661.665 409.471 647.841 415.949 632.11L378.962 616.88L341.974 601.65C340.612 604.959 339.365 605.975 338.722 606.428L361.742 639.14ZM378.962 616.88L416.101 631.736C422.277 616.295 424.842 599.74 424.842 582.86H384.842H344.842C344.842 591.74 343.486 597.865 341.822 602.024L378.962 616.88ZM384.842 582.86H424.842C424.842 570.318 423.636 557.989 420.621 546.362L381.902 556.4L343.182 566.438C344.087 569.931 344.842 575.242 344.842 582.86H384.842ZM381.902 556.4L420.949 547.723C418.253 535.591 413.323 523.546 405.076 512.942L373.502 537.5L341.927 562.058C341.52 561.534 342.19 562.089 342.854 565.077L381.902 556.4ZM373.502 537.5L405.929 514.08C398.24 503.435 388.128 495.115 376.056 489.683L359.642 526.16L343.227 562.637C342.919 562.498 342.461 562.239 341.977 561.843C341.495 561.449 341.199 561.093 341.074 560.92L373.502 537.5ZM359.642 526.16L376.765 490.01C364.797 484.341 352.18 482.38 340.322 482.38V522.38V562.38C343.583 562.38 343.846 562.939 342.518 562.31L359.642 526.16ZM340.322 522.38V482.38C330.362 482.38 320.531 483.684 310.905 486.195L321.002 524.9L331.098 563.605C334.352 562.756 337.401 562.38 340.322 562.38V522.38ZM321.002 524.9L310.477 486.309C301.732 488.694 292.604 492.183 284.251 497.553L305.882 531.2L327.512 564.847C327.188 565.055 327.281 564.952 327.986 564.658C328.685 564.367 329.831 563.953 331.526 563.491L321.002 524.9ZM305.882 531.2H265.882V645.02H305.882H345.882V531.2H305.882ZM305.882 645.02L298.726 684.375C302.939 685.141 307.762 685.814 312.968 686.426L317.642 646.7L322.315 606.974C318.001 606.466 314.984 606.019 313.037 605.665L305.882 645.02ZM317.642 646.7L315.293 686.631C320.955 686.964 326.929 687.12 333.182 687.12V647.12V607.12C328.234 607.12 323.848 606.996 319.99 606.769L317.642 646.7ZM463.178 772.7H423.178V812.7H463.178V772.7ZM463.178 481.64L451.815 443.288L423.178 451.773V481.64H463.178ZM489.638 475.34L482.202 436.037L482.103 436.056L482.003 436.075L489.638 475.34ZM521.558 470.72L517.578 430.918L517.527 430.924L517.477 430.929L521.558 470.72ZM615.638 483.32L596.164 518.259L596.384 518.382L596.605 518.502L615.638 483.32ZM654.698 523.22L619.153 541.566L619.269 541.791L619.388 542.014L654.698 523.22ZM657.218 644.6L620.545 628.629L620.482 628.772L620.421 628.916L657.218 644.6ZM624.878 684.92L647.066 718.202L647.29 718.053L647.512 717.901L624.878 684.92ZM547.598 696.68L556.275 657.633V657.633L547.598 696.68ZM525.758 689.54L541.868 652.927L485.758 628.239V689.54H525.758ZM525.758 772.7V812.7H565.758V772.7H525.758ZM579.518 642.5L563.104 606.023L562.747 606.183L562.395 606.35L579.518 642.5ZM593.378 631.16L561.804 606.602L561.367 607.164L560.951 607.74L593.378 631.16ZM601.778 612.68L563.058 602.642L562.923 603.162L562.802 603.686L601.778 612.68ZM581.618 530.36L604.638 497.648L604.638 497.648L581.618 530.36ZM537.518 523.22L539.867 563.151L541.032 563.082L542.192 562.946L537.518 523.22ZM525.758 524.48L518.603 485.125L485.758 491.097V524.48H525.758ZM525.758 637.46H485.758V659.298L504.128 671.107L525.758 637.46ZM540.878 643.76L530.353 682.351L530.567 682.409L530.781 682.465L540.878 643.76ZM463.178 772.7H503.178V481.64H463.178H423.178V772.7H463.178ZM463.178 481.64L474.542 519.992C480.572 518.205 488.097 516.389 497.273 514.605L489.638 475.34L482.003 436.075C471.019 438.211 460.904 440.595 451.815 443.288L463.178 481.64ZM489.638 475.34L497.074 514.643C506.279 512.901 515.798 511.521 525.639 510.511L521.558 470.72L517.477 430.929C505.478 432.159 493.718 433.859 482.202 436.037L489.638 475.34ZM521.558 470.72L525.538 510.521C535.566 509.519 544.87 509.04 553.478 509.04V469.04V429.04C541.926 429.04 529.951 429.681 517.578 430.918L521.558 470.72ZM553.478 469.04V509.04C572.674 509.04 586.331 512.779 596.164 518.259L615.638 483.32L635.112 448.381C610.785 434.821 583.002 429.04 553.478 429.04V469.04ZM615.638 483.32L596.605 518.502C606.569 523.892 613.857 531.304 619.153 541.566L654.698 523.22L690.243 504.874C677.62 480.416 658.867 461.228 634.671 448.138L615.638 483.32ZM654.698 523.22L619.388 542.014C624.999 552.556 628.558 566.296 628.558 584.54H668.558H708.558C708.558 555.744 702.877 528.604 690.008 504.426L654.698 523.22ZM668.558 584.54H628.558C628.558 602.791 625.521 617.202 620.545 628.629L657.218 644.6L693.891 660.571C704.035 637.278 708.558 611.649 708.558 584.54H668.558ZM657.218 644.6L620.421 628.916C615.898 639.528 609.8 646.754 602.244 651.939L624.878 684.92L647.512 717.901C668.516 703.486 683.978 683.832 694.015 660.284L657.218 644.6ZM624.878 684.92L602.69 651.638C596.321 655.884 586.842 659.2 571.958 659.2V699.2V739.2C599.074 739.2 624.875 732.996 647.066 718.202L624.878 684.92ZM571.958 699.2V659.2C565.852 659.2 560.668 658.609 556.275 657.633L547.598 696.68L538.921 735.727C549.648 738.111 560.705 739.2 571.958 739.2V699.2ZM547.598 696.68L556.275 657.633C551.234 656.512 546.445 654.942 541.868 652.927L525.758 689.54L509.649 726.153C519.071 730.298 528.842 733.488 538.921 735.727L547.598 696.68ZM525.758 689.54H485.758V772.7H525.758H565.758V689.54H525.758ZM525.758 772.7V732.7H463.178V772.7V812.7H525.758V772.7ZM560.198 646.28V686.28C572.056 686.28 584.673 684.319 596.642 678.65L579.518 642.5L562.395 606.35C563.723 605.721 563.46 606.28 560.198 606.28V646.28ZM579.518 642.5L595.933 678.977C608.004 673.545 618.117 665.225 625.805 654.58L593.378 631.16L560.951 607.74C561.076 607.567 561.372 607.211 561.854 606.817C562.338 606.421 562.795 606.162 563.104 606.023L579.518 642.5ZM593.378 631.16L624.952 655.718C632.998 645.373 637.987 633.662 640.754 621.674L601.778 612.68L562.802 603.686C562.209 606.258 561.598 606.867 561.804 606.602L593.378 631.16ZM601.778 612.68L640.498 622.718C643.512 611.091 644.718 598.762 644.718 586.22H604.718H564.718C564.718 593.838 563.964 599.149 563.058 602.642L601.778 612.68ZM604.718 586.22H644.718C644.718 569.381 642.166 552.788 635.825 537.39L598.838 552.62L561.851 567.85C563.351 571.492 564.718 577.299 564.718 586.22H604.718ZM598.838 552.62L635.825 537.39C629.348 521.659 619.115 507.835 604.638 497.648L581.618 530.36L558.598 563.072C559.241 563.525 560.488 564.541 561.851 567.85L598.838 552.62ZM581.618 530.36L604.638 497.648C588.861 486.546 570.766 482.38 553.058 482.38V522.38V562.38C555.731 562.38 557.299 562.691 558.044 562.899C558.723 563.089 558.794 563.21 558.598 563.072L581.618 530.36ZM553.058 522.38V482.38C546.149 482.38 539.388 482.724 532.844 483.494L537.518 523.22L542.192 562.946C545.168 562.596 548.767 562.38 553.058 562.38V522.38ZM537.518 523.22L535.169 483.289C529.537 483.62 523.864 484.169 518.603 485.125L525.758 524.48L532.914 563.835C533.812 563.671 535.979 563.38 539.867 563.151L537.518 523.22ZM525.758 524.48H485.758V637.46H525.758H565.758V524.48H525.758ZM525.758 637.46L504.128 671.107C512.481 676.477 521.608 679.966 530.353 682.351L540.878 643.76L551.403 605.169C549.708 604.707 548.562 604.293 547.863 604.002C547.158 603.708 547.064 603.605 547.388 603.813L525.758 637.46ZM540.878 643.76L530.781 682.465C540.407 684.976 550.238 686.28 560.198 686.28V646.28V606.28C557.278 606.28 554.229 605.904 550.975 605.055L540.878 643.76ZM683.055 695H643.055V735H683.055V695ZM683.055 481.64L672.196 443.142L643.055 451.361V481.64H683.055ZM724.215 473.24L730.247 512.783L730.519 512.741L730.791 512.696L724.215 473.24ZM812.415 475.34L796.658 512.106L797.283 512.374L797.917 512.62L812.415 475.34ZM837.195 489.62L810.948 519.804L834.973 540.696L860.721 521.969L837.195 489.62ZM856.935 478.7L871.79 515.839L872.157 515.692L872.52 515.539L856.935 478.7ZM879.195 471.56L887.872 510.607L887.872 510.607L879.195 471.56ZM954.375 482.06L931.682 515L932.1 515.288L932.524 515.564L954.375 482.06ZM980.835 517.34L942.681 529.351L942.781 529.671L942.887 529.989L980.835 517.34ZM988.395 695V735H1028.39V695H988.395ZM925.815 695H885.815V735H925.815V695ZM922.455 545.48L961.014 534.843V534.843L922.455 545.48ZM911.535 527.84L934.954 495.413L934.954 495.413L911.535 527.84ZM882.555 523.64L889.131 563.096L890.347 562.893L891.549 562.616L882.555 523.64ZM862.395 531.2L841.815 496.9L815.034 512.969L824.128 542.846L862.395 531.2ZM866.175 551.78L826.292 554.848L826.297 554.909L826.302 554.97L866.175 551.78ZM867.015 695V735H907.015V695H867.015ZM804.435 695H764.435V735H804.435V695ZM801.075 545.48L762.515 556.117V556.117L801.075 545.48ZM790.155 527.84L813.574 495.413V495.413L790.155 527.84ZM762.015 522.8V562.8H764.01L765.995 562.602L762.015 522.8ZM753.615 523.22L749.634 483.419L749.416 483.44L749.197 483.465L753.615 523.22ZM745.635 524.48L737.79 485.257L705.635 491.688V524.48H745.635ZM745.635 695V735H785.635V695H745.635ZM683.055 695H723.055V481.64H683.055H643.055V695H683.055ZM683.055 481.64L693.913 520.138C702.697 517.66 714.671 515.159 730.247 512.783L724.215 473.24L718.183 433.697C700.718 436.361 685.252 439.46 672.196 443.142L683.055 481.64ZM724.215 473.24L730.791 512.696C745.523 510.24 759.842 509.04 773.775 509.04V469.04V429.04C755.227 429.04 736.507 430.64 717.639 433.784L724.215 473.24ZM773.775 469.04V509.04C786.761 509.04 793.676 510.828 796.658 512.106L812.415 475.34L828.172 438.574C811.553 431.452 792.709 429.04 773.775 429.04V469.04ZM812.415 475.34L797.917 512.62C804.798 515.296 808.775 517.915 810.948 519.804L837.195 489.62L863.442 459.436C852.734 450.125 840.192 443.224 826.913 438.06L812.415 475.34ZM837.195 489.62L860.721 521.969C864.229 519.419 867.9 517.395 871.79 515.839L856.935 478.7L842.079 441.561C831.969 445.605 822.481 450.861 813.668 457.271L837.195 489.62ZM856.935 478.7L872.52 515.539C877.615 513.383 882.725 511.751 887.872 510.607L879.195 471.56L870.517 432.513C860.544 434.729 850.814 437.857 841.349 441.861L856.935 478.7ZM879.195 471.56L887.872 510.607C893.136 509.438 897.19 509.04 900.195 509.04V469.04V429.04C890.319 429.04 880.373 430.322 870.517 432.513L879.195 471.56ZM900.195 469.04V509.04C919.67 509.04 928.46 512.781 931.682 515L954.375 482.06L977.067 449.12C955.089 433.979 927.76 429.04 900.195 429.04V469.04ZM954.375 482.06L932.524 515.564C937.388 518.737 940.609 522.771 942.681 529.351L980.835 517.34L1018.99 505.329C1011.54 481.669 997.121 462.183 976.225 448.556L954.375 482.06ZM980.835 517.34L942.887 529.989C946.263 540.115 948.395 553.314 948.395 570.26H988.395H1028.39C1028.39 546.886 1025.49 524.805 1018.78 504.691L980.835 517.34ZM988.395 570.26H948.395V695H988.395H1028.39V570.26H988.395ZM988.395 695V655H925.815V695V735H988.395V695ZM925.815 695H965.815V577.82H925.815H885.815V695H925.815ZM925.815 577.82H965.815C965.815 562.649 964.604 547.854 961.014 534.843L922.455 545.48L883.895 556.117C884.786 559.346 885.815 566.111 885.815 577.82H925.815ZM922.455 545.48L961.014 534.843C957.209 521.049 949.615 506.001 934.954 495.413L911.535 527.84L888.115 560.267C885.943 558.699 884.658 557.041 884.034 556.034C883.469 555.122 883.576 554.96 883.895 556.117L922.455 545.48ZM911.535 527.84L934.954 495.413C921.069 485.385 905.278 482.38 891.375 482.38V522.38V562.38C892.744 562.38 892.923 562.534 892.258 562.354C891.515 562.153 889.948 561.591 888.115 560.267L911.535 527.84ZM891.375 522.38V482.38C884.769 482.38 878.473 483.531 873.56 484.664L882.555 523.64L891.549 562.616C892.025 562.506 892.398 562.428 892.676 562.375C892.956 562.321 893.109 562.298 893.146 562.293C893.187 562.287 893.064 562.306 892.796 562.328C892.659 562.339 892.472 562.352 892.239 562.362C892.007 562.372 891.717 562.38 891.375 562.38V522.38ZM882.555 523.64L875.979 484.184C869.61 485.246 863.498 487.015 857.696 489.246L872.055 526.58L886.414 563.914C887.892 563.345 888.78 563.154 889.131 563.096L882.555 523.64ZM872.055 526.58L857.696 489.246C852.299 491.322 846.934 493.829 841.815 496.9L862.395 531.2L882.974 565.5C883.455 565.211 884.53 564.638 886.414 563.914L872.055 526.58ZM862.395 531.2L824.128 542.846C825.17 546.27 825.938 550.234 826.292 554.848L866.175 551.78L906.057 548.712C905.292 538.766 903.54 529.01 900.662 519.554L862.395 531.2ZM866.175 551.78L826.302 554.97C826.765 560.76 827.015 567.244 827.015 574.46H867.015H907.015C907.015 565.436 906.704 556.8 906.047 548.59L866.175 551.78ZM867.015 574.46H827.015V695H867.015H907.015V574.46H867.015ZM867.015 695V655H804.435V695V735H867.015V695ZM804.435 695H844.435V577.82H804.435H764.435V695H804.435ZM804.435 577.82H844.435C844.435 562.649 843.224 547.854 839.634 534.843L801.075 545.48L762.515 556.117C763.406 559.346 764.435 566.111 764.435 577.82H804.435ZM801.075 545.48L839.634 534.843C835.829 521.049 828.235 506.001 813.574 495.413L790.155 527.84L766.735 560.267C764.563 558.699 763.278 557.041 762.654 556.034C762.089 555.121 762.196 554.959 762.515 556.117L801.075 545.48ZM790.155 527.84L813.574 495.413C799.689 485.385 783.898 482.38 769.995 482.38V522.38V562.38C771.364 562.38 771.543 562.534 770.878 562.354C770.135 562.153 768.568 561.591 766.735 560.267L790.155 527.84ZM769.995 522.38V482.38C766.003 482.38 762.007 482.601 758.035 482.998L762.015 522.8L765.995 562.602C767.622 562.439 768.947 562.38 769.995 562.38V522.38ZM762.015 522.8V482.8C757.879 482.8 753.75 483.007 749.634 483.419L753.615 523.22L757.595 563.021C759.079 562.873 760.55 562.8 762.015 562.8V522.8ZM753.615 523.22L749.197 483.465C745.395 483.887 741.585 484.498 737.79 485.257L745.635 524.48L753.479 563.703C755.284 563.342 756.794 563.113 758.032 562.975L753.615 523.22ZM745.635 524.48H705.635V695H745.635H785.635V524.48H745.635ZM745.635 695V655H683.055V695V735H745.635V695Z" fill="#2A004C" mask="url(#path-5-outside-1_3327_26)"/>
</g>
<defs>
<radialGradient id="paint0_radial_3327_26" cx="0" cy="0" r="1" gradientUnits="userSpaceOnUse" gradientTransform="translate(512 512) rotate(90) scale(512)">
<stop offset="0.211538" stop-color="#181825"/>
<stop offset="1"/>
</radialGradient>
<radialGradient id="paint1_radial_3327_26" cx="0" cy="0" r="1" gradientUnits="userSpaceOnUse" gradientTransform="translate(512 512) rotate(90) scale(512)">
<stop stop-color="#5D5FEF"/>
<stop offset="1" stop-color="#130022"/>
</radialGradient>
</defs>
</svg>
