<svg width="1024" height="1024" viewBox="0 0 1024 1024" fill="none" xmlns="http://www.w3.org/2000/svg">
<mask id="mask0_3327_26" style="mask-type:alpha" maskUnits="userSpaceOnUse" x="0" y="0" width="1024" height="1024">
<rect width="1024" height="1024" fill="url(#paint0_radial_3327_26)"/>
</mask>
<g mask="url(#mask0_3327_26)">
<rect width="1024" height="1024" rx="80" fill="url(#paint1_radial_3327_26)"/>
<path d="M508 546C481.034 546 457.438 537.288 437.213 519.864C417.738 501.682 408 477.061 408 446C408 414.939 417.738 390.697 437.213 373.273C457.438 355.091 481.034 346 508 346C534.966 346 558.187 355.091 577.663 373.273C597.888 390.697 608 414.939 608 446C608 477.061 597.888 501.682 577.663 519.864C558.187 537.288 534.966 546 508 546Z" fill="#5D5FEF"/>
<path d="M0 446H195.048L292.571 225L438.857 667L585.143 335.5L731.429 501.25H1024" stroke="white" stroke-width="12" stroke-linejoin="round"/>
<path d="M29.5773 695V481.64C40.2173 478.56 53.9373 475.76 70.7373 473.24C87.5373 470.44 105.177 469.04 123.657 469.04C148.857 469.04 168.457 473.38 182.457 482.06C196.457 490.46 206.257 502.22 211.857 517.34C217.457 532.46 220.257 550.1 220.257 570.26V695H157.677V577.82C157.677 564.38 156.557 553.6 154.317 545.48C152.077 537.36 148.157 531.48 142.557 527.84C137.237 524.2 129.677 522.38 119.877 522.38C115.397 522.38 110.637 522.66 105.597 523.22C100.557 523.5 96.0773 523.92 92.1573 524.48V695H29.5773Z" fill="#5D5FEF"/>
<path d="M333.602 700.46C323.522 700.46 312.882 699.9 301.682 698.78C290.762 697.66 280.122 696.12 269.762 694.16C259.682 692.2 250.862 690.1 243.302 687.86V379.16L305.882 369.08V479.12C312.882 476.04 320.162 473.66 327.722 471.98C335.282 470.3 343.402 469.46 352.082 469.46C373.082 469.46 390.722 474.22 405.002 483.74C419.282 493.26 430.062 506.7 437.342 524.06C444.902 541.14 448.682 561.3 448.682 584.54C448.682 608.06 444.062 628.5 434.822 645.86C425.862 663.22 412.842 676.66 395.762 686.18C378.682 695.7 357.962 700.46 333.602 700.46ZM333.182 647.12C344.662 647.12 354.182 644.46 361.742 639.14C369.302 633.82 375.042 626.4 378.962 616.88C382.882 607.08 384.842 595.74 384.842 582.86C384.842 572.78 383.862 563.96 381.902 556.4C380.222 548.84 377.422 542.54 373.502 537.5C369.862 532.46 365.242 528.68 359.642 526.16C354.322 523.64 347.882 522.38 340.322 522.38C333.882 522.38 327.442 523.22 321.002 524.9C314.842 526.58 309.802 528.68 305.882 531.2V645.02C308.962 645.58 312.882 646.14 317.642 646.7C322.402 646.98 327.582 647.12 333.182 647.12ZM463.178 772.7V481.64C470.738 479.4 479.558 477.3 489.638 475.34C499.998 473.38 510.638 471.84 521.558 470.72C532.758 469.6 543.398 469.04 553.478 469.04C577.838 469.04 598.558 473.8 615.638 483.32C632.718 492.56 645.738 505.86 654.698 523.22C663.938 540.58 668.558 561.02 668.558 584.54C668.558 607.22 664.778 627.24 657.218 644.6C649.938 661.68 639.158 675.12 624.878 684.92C610.598 694.44 592.958 699.2 571.958 699.2C563.278 699.2 555.158 698.36 547.598 696.68C540.038 695 532.758 692.62 525.758 689.54V772.7H463.178ZM560.198 646.28C567.758 646.28 574.198 645.02 579.518 642.5C585.118 639.98 589.738 636.2 593.378 631.16C597.298 626.12 600.098 619.96 601.778 612.68C603.738 605.12 604.718 596.3 604.718 586.22C604.718 573.34 602.758 562.14 598.838 552.62C594.918 543.1 589.178 535.68 581.618 530.36C574.058 525.04 564.538 522.38 553.058 522.38C547.458 522.38 542.278 522.66 537.518 523.22C532.758 523.5 528.838 523.92 525.758 524.48V637.46C529.678 639.98 534.718 642.08 540.878 643.76C547.318 645.44 553.758 646.28 560.198 646.28ZM683.055 695V481.64C693.975 478.56 707.695 475.76 724.215 473.24C741.015 470.44 757.535 469.04 773.775 469.04C789.735 469.04 802.615 471.14 812.415 475.34C822.495 479.26 830.755 484.02 837.195 489.62C843.355 485.14 849.935 481.5 856.935 478.7C864.215 475.62 871.635 473.24 879.195 471.56C886.755 469.88 893.755 469.04 900.195 469.04C923.715 469.04 941.775 473.38 954.375 482.06C967.255 490.46 976.075 502.22 980.835 517.34C985.875 532.46 988.395 550.1 988.395 570.26V695H925.815V577.82C925.815 564.38 924.695 553.6 922.455 545.48C920.215 537.36 916.575 531.48 911.535 527.84C906.495 524.2 899.775 522.38 891.375 522.38C889.135 522.38 886.195 522.8 882.555 523.64C879.195 524.2 875.695 525.18 872.055 526.58C868.415 527.98 865.195 529.52 862.395 531.2C864.355 537.64 865.615 544.5 866.175 551.78C866.735 558.78 867.015 566.34 867.015 574.46V695H804.435V577.82C804.435 564.38 803.315 553.6 801.075 545.48C798.835 537.36 795.195 531.48 790.155 527.84C785.115 524.2 778.395 522.38 769.995 522.38C767.475 522.38 764.815 522.52 762.015 522.8C759.215 522.8 756.415 522.94 753.615 523.22C751.095 523.5 748.435 523.92 745.635 524.48V695H683.055Z" fill="white"/>
</g>
<defs>
<radialGradient id="paint0_radial_3327_26" cx="0" cy="0" r="1" gradientUnits="userSpaceOnUse" gradientTransform="translate(512 512) rotate(90) scale(512)">
<stop offset="0.211538" stop-color="#181825"/>
<stop offset="1"/>
</radialGradient>
<radialGradient id="paint1_radial_3327_26" cx="0" cy="0" r="1" gradientUnits="userSpaceOnUse" gradientTransform="translate(512 512) rotate(90) scale(512)">
<stop stop-color="#5D5FEF"/>
<stop offset="1"/>
</radialGradient>
</defs>
</svg>
