<svg width="128" height="128" viewBox="270 836 128 128" fill="none" xmlns="http://www.w3.org/2000/svg"><defs><linearGradient xmlns="http://www.w3.org/2000/svg" id="paint8_linear_3315_2" x1="274" y1="840" x2="274" y2="960" gradientUnits="userSpaceOnUse">
<stop stop-color="#0B0B10" />
<stop offset="1" stop-color="#1E1E2E" />
</linearGradient>
</defs><path xmlns="http://www.w3.org/2000/svg" d="M372 840H296C283.85 840 274 849.85 274 862V938C274 950.15 283.85 960 296 960H372C384.15 960 394 950.15 394 938V862C394 849.85 384.15 840 372 840Z" fill="url(#paint8_linear_3315_2)" />
<path xmlns="http://www.w3.org/2000/svg" d="M292 924H308L316 908L328 940L340 916L352 928H376" stroke="#A6E3A1" stroke-width="4" stroke-linecap="round" stroke-linejoin="round" />
<path xmlns="http://www.w3.org/2000/svg" d="M284.136 898V877.68C285.149 877.387 286.456 877.12 288.056 876.88C289.656 876.613 291.336 876.48 293.096 876.48C295.496 876.48 297.363 876.893 298.696 877.72C300.029 878.52 300.963 879.64 301.496 881.08C302.029 882.52 302.296 884.2 302.296 886.12V898H296.336V886.84C296.336 885.56 296.229 884.533 296.016 883.76C295.803 882.987 295.429 882.427 294.896 882.08C294.389 881.733 293.669 881.56 292.736 881.56C292.309 881.56 291.856 881.587 291.376 881.64C290.896 881.667 290.469 881.707 290.096 881.76V898H284.136ZM316.291 898.52C315.331 898.52 314.317 898.467 313.251 898.36C312.211 898.253 311.197 898.107 310.211 897.92C309.251 897.733 308.411 897.533 307.691 897.32V867.92L313.651 866.96V877.44C314.317 877.147 315.011 876.92 315.731 876.76C316.451 876.6 317.224 876.52 318.051 876.52C320.051 876.52 321.731 876.973 323.091 877.88C324.451 878.787 325.477 880.067 326.171 881.72C326.891 883.347 327.251 885.267 327.251 887.48C327.251 889.72 326.811 891.667 325.931 893.32C325.077 894.973 323.837 896.253 322.211 897.16C320.584 898.067 318.611 898.52 316.291 898.52ZM316.251 893.44C317.344 893.44 318.251 893.187 318.971 892.68C319.691 892.173 320.237 891.467 320.611 890.56C320.984 889.627 321.171 888.547 321.171 887.32C321.171 886.36 321.077 885.52 320.891 884.8C320.731 884.08 320.464 883.48 320.091 883C319.744 882.52 319.304 882.16 318.771 881.92C318.264 881.68 317.651 881.56 316.931 881.56C316.317 881.56 315.704 881.64 315.091 881.8C314.504 881.96 314.024 882.16 313.651 882.4V893.24C313.944 893.293 314.317 893.347 314.771 893.4C315.224 893.427 315.717 893.44 316.251 893.44ZM331.831 905.4V877.68C332.551 877.467 333.391 877.267 334.351 877.08C335.338 876.893 336.351 876.747 337.391 876.64C338.458 876.533 339.471 876.48 340.431 876.48C342.751 876.48 344.725 876.933 346.351 877.84C347.978 878.72 349.218 879.987 350.071 881.64C350.951 883.293 351.391 885.24 351.391 887.48C351.391 889.64 351.031 891.547 350.311 893.2C349.618 894.827 348.591 896.107 347.231 897.04C345.871 897.947 344.191 898.4 342.191 898.4C341.365 898.4 340.591 898.32 339.871 898.16C339.151 898 338.458 897.773 337.791 897.48V905.4H331.831ZM341.071 893.36C341.791 893.36 342.405 893.24 342.911 893C343.445 892.76 343.885 892.4 344.231 891.92C344.605 891.44 344.871 890.853 345.031 890.16C345.218 889.44 345.311 888.6 345.311 887.64C345.311 886.413 345.125 885.347 344.751 884.44C344.378 883.533 343.831 882.827 343.111 882.32C342.391 881.813 341.485 881.56 340.391 881.56C339.858 881.56 339.365 881.587 338.911 881.64C338.458 881.667 338.085 881.707 337.791 881.76V892.52C338.165 892.76 338.645 892.96 339.231 893.12C339.845 893.28 340.458 893.36 341.071 893.36ZM355.972 898V877.68C357.012 877.387 358.319 877.12 359.892 876.88C361.492 876.613 363.065 876.48 364.612 876.48C366.132 876.48 367.359 876.68 368.292 877.08C369.252 877.453 370.039 877.907 370.652 878.44C371.239 878.013 371.865 877.667 372.532 877.4C373.225 877.107 373.932 876.88 374.652 876.72C375.372 876.56 376.039 876.48 376.652 876.48C378.892 876.48 380.612 876.893 381.812 877.72C383.039 878.52 383.879 879.64 384.332 881.08C384.812 882.52 385.052 884.2 385.052 886.12V898H379.092V886.84C379.092 885.56 378.985 884.533 378.772 883.76C378.559 882.987 378.212 882.427 377.732 882.08C377.252 881.733 376.612 881.56 375.812 881.56C375.599 881.56 375.319 881.6 374.972 881.68C374.652 881.733 374.319 881.827 373.972 881.96C373.625 882.093 373.319 882.24 373.052 882.4C373.239 883.013 373.359 883.667 373.412 884.36C373.465 885.027 373.492 885.747 373.492 886.52V898H367.532V886.84C367.532 885.56 367.425 884.533 367.212 883.76C366.999 882.987 366.652 882.427 366.172 882.08C365.692 881.733 365.052 881.56 364.252 881.56C364.012 881.56 363.759 881.573 363.492 881.6C363.225 881.6 362.959 881.613 362.692 881.64C362.452 881.667 362.199 881.707 361.932 881.76V898H355.972Z" fill="#89B4FA" />
</svg>